<svg width="38" height="30" viewBox="0 0 38 30" fill="none" xmlns="http://www.w3.org/2000/svg">
<rect width="38" height="30" rx="8" fill="#0A2E57"/>
<path d="M12.149 20L9.276 15.983V20H6.728V10.835H9.276V14.787L12.123 10.835H15.061L11.694 15.281L15.23 20H12.149ZM23.4016 13.89C23.4016 14.4447 23.2716 14.9517 23.0116 15.411C22.7603 15.8617 22.3746 16.2257 21.8546 16.503C21.3433 16.7717 20.715 16.906 19.9696 16.906H18.7086V20H16.1606V10.835H19.9696C20.7063 10.835 21.3303 10.965 21.8416 11.225C22.3616 11.485 22.7516 11.8447 23.0116 12.304C23.2716 12.7633 23.4016 13.292 23.4016 13.89ZM19.7226 14.878C20.442 14.878 20.8016 14.5487 20.8016 13.89C20.8016 13.2227 20.442 12.889 19.7226 12.889H18.7086V14.878H19.7226ZM30.4963 10.835V16.906C30.4963 17.9373 30.2146 18.726 29.6513 19.272C29.0966 19.818 28.3296 20.091 27.3503 20.091C26.3103 20.091 25.4783 19.8007 24.8543 19.22C24.2389 18.6393 23.9313 17.803 23.9313 16.711H26.4533C26.4619 17.4303 26.7263 17.79 27.2463 17.79C27.7143 17.79 27.9483 17.4953 27.9483 16.906V10.835H30.4963Z" fill="white"/>
</svg>
